<svg xmlns="http://www.w3.org/2000/svg" width="900" height="520" viewBox="0 0 900 520">
<rect width="100%" height="100%" fill="white"/>
<path d="M 80 35 V 450 H 875" stroke="#222" fill="none"/>
<text x="20" y="25" font-family="sans-serif" font-size="17">T06 validation: layerwise MSE (log scale)</text>
<text x="450" y="500" font-family="sans-serif" font-size="13">layer</text>
<text x="18" y="260" font-family="sans-serif" font-size="13" transform="rotate(-90 18 260)">mean squared error</text>
<polyline points="80.0,450.0 105.6,207.1 131.3,195.7 156.9,188.4 182.6,184.1 208.2,181.0 233.9,178.7 259.5,176.9 285.2,175.6 310.8,174.8 336.5,174.2 362.1,173.7 387.7,172.9 413.4,172.0 439.0,171.7 464.7,171.6 490.3,171.5 516.0,171.6 541.6,171.7 567.3,171.7 592.9,171.8 618.5,172.1 644.2,171.8 669.8,171.9 695.5,171.7 721.1,171.6 746.8,171.6 772.4,171.2 798.1,171.2 823.7,171.2 849.4,171.1 875.0,171.0" fill="none" stroke="#0072B2" stroke-width="2"/>
<text x="90" y="59" font-family="sans-serif" font-size="13" fill="#0072B2">exact_scalar</text>
<polyline points="80.0,187.5 105.6,193.1 131.3,198.1 156.9,202.3 182.6,205.6 208.2,209.0 233.9,212.0 259.5,214.3 285.2,216.6 310.8,218.4 336.5,220.4 362.1,221.9 387.7,222.7 413.4,223.8 439.0,225.5 464.7,226.6 490.3,227.2 516.0,228.4 541.6,229.5 567.3,230.1 592.9,230.7 618.5,231.1 644.2,231.8 669.8,232.6 695.5,232.7 721.1,233.5 746.8,233.4 772.4,233.2 798.1,233.1 823.7,233.3 849.4,233.9 875.0,234.1" fill="none" stroke="#D55E00" stroke-width="2"/>
<text x="90" y="78" font-family="sans-serif" font-size="13" fill="#D55E00">gaussian_mc</text>
<polyline points="80.0,450.0 105.6,289.1 131.3,267.2 156.9,256.5 182.6,249.5 208.2,244.5 233.9,241.0 259.5,238.0 285.2,235.5 310.8,233.4 336.5,231.7 362.1,230.3 387.7,229.1 413.4,227.9 439.0,226.9 464.7,226.1 490.3,225.3 516.0,224.9 541.6,224.6 567.3,224.4 592.9,224.2 618.5,224.1 644.2,223.8 669.8,223.6 695.5,223.3 721.1,223.1 746.8,222.6 772.4,222.4 798.1,222.2 823.7,221.5 849.4,221.5 875.0,221.3" fill="none" stroke="#009E73" stroke-width="2"/>
<text x="90" y="97" font-family="sans-serif" font-size="13" fill="#009E73">runtime_covariance</text>
<polyline points="80.0,58.5 105.6,50.3 131.3,46.4 156.9,44.5 182.6,43.1 208.2,42.0 233.9,41.3 259.5,40.8 285.2,40.5 310.8,39.5 336.5,39.3 362.1,38.9 387.7,38.4 413.4,38.1 439.0,38.1 464.7,38.0 490.3,37.7 516.0,37.8 541.6,37.7 567.3,37.9 592.9,37.9 618.5,38.1 644.2,37.9 669.8,37.7 695.5,37.3 721.1,37.1 746.8,36.6 772.4,36.2 798.1,35.7 823.7,35.3 849.4,35.4 875.0,35.0" fill="none" stroke="#CC79A7" stroke-width="2"/>
<text x="90" y="116" font-family="sans-serif" font-size="13" fill="#CC79A7">zero</text>
<path d="M 76 35.0 H 875" stroke="#ddd"/>
<text x="14" y="39.0" font-family="monospace" font-size="11">1e0.0</text>
<path d="M 76 242.5 H 875" stroke="#ddd"/>
<text x="14" y="246.5" font-family="monospace" font-size="11">1e-4.6</text>
<path d="M 76 450.0 H 875" stroke="#ddd"/>
<text x="14" y="454.0" font-family="monospace" font-size="11">1e-9.2</text>
</svg>